<?xml version="1.0" encoding="utf-8"?>
<!-- Generator: Adobe Illustrator 27.5.0, SVG Export Plug-In . SVG Version: 6.00 Build 0)  -->
<svg version="1.1" xmlns="http://www.w3.org/2000/svg" xmlns:xlink="http://www.w3.org/1999/xlink" x="0px" y="0px"
	 viewBox="0 0 500 500" style="enable-background:new 0 0 500 500;" xml:space="preserve">
<g id="BACKGROUND">
	<rect style="fill:#FFFFFF;" width="500" height="500"/>
</g>
<g id="OBJECTS">
	<g>
		<path style="fill:#FCEFEB;" d="M139.735,403.959c-7.838-3.192-14.867-7.504-20.503-13.254
			c-31.45-32.087-27.438-93.753,15.787-113.101c20.594-9.219,44.523-7.663,66.368-2.016c11.612,3.002,23.256,7.137,35.229,6.433
			c17.926-1.054,33.435-12.771,45.893-25.704c12.457-12.933,23.294-27.722,38.022-37.996c20.854-14.547,48.76-18.425,72.79-10.115
			c12.593,4.355,24.198,11.991,32.313,22.559c23.252,30.282,19.983,73.502,2.075,104.465c-9.29,16.062-19.767,31.677-33.407,44.255
			s-30.753,22.008-49.212,23.891c-14.636,1.493-29.304-1.753-44.002-2.4c-28.95-1.275-57.34,7.522-86.204,10.09
			C192.749,413.036,162.755,413.333,139.735,403.959z"/>
		<path style="fill:#FCEFEB;" d="M176.014,222.174c-27.572-0.8-52.422-10.566-55.446-36.731c-1.005-8.698,1.794-17.468,6.027-25.133
			c8.367-15.152,22.259-26.777,37.754-34.492c15.87-7.902,33.004-11.058,50.375-13.762c15.744-2.451,30.643-7.682,45.943-11.705
			c14.925-3.925,27.439-12.986,43.204-15.638c10.303-1.733,21.233-1.885,30.827,2.253c19.949,8.605,21.008,30.575,12.914,48.246
			c-19.602,42.798-65.897,47.714-100.86,70.601C232.411,215.2,202.916,222.955,176.014,222.174z"/>
		<g>
			<g>
				<path style="fill:none;stroke:#000000;stroke-width:0.5;stroke-miterlimit:10;" d="M335.852,262.222
					c-7.718,0-13.974-6.978-13.974-6.978s6.256-6.978,13.974-6.978c7.717,0,13.974,6.978,13.974,6.978
					S343.569,262.222,335.852,262.222z"/>
				<path d="M335.802,262.239c-2.692,0-4.874-3.128-4.874-6.987s2.182-6.987,4.874-6.987c2.692,0,4.874,3.128,4.874,6.987
					S338.494,262.239,335.802,262.239z"/>
			</g>
		</g>
		<g>
			<polygon style="fill:#8CC9DE;" points="197.853,224.576 156.949,224.499 156.439,202.691 197.343,202.768 			"/>
			<polyline style="fill:none;stroke:#1D2038;stroke-width:0.5;stroke-miterlimit:10;" points="197.343,202.768 176.783,213.303 
				156.536,203.058 			"/>
			
				<line style="fill:none;stroke:#1D2038;stroke-width:0.5;stroke-miterlimit:10;" x1="193.41" y1="217.244" x2="185.389" y2="217.383"/>
			
				<line style="fill:none;stroke:#1D2038;stroke-width:0.5;stroke-miterlimit:10;" x1="193.516" y1="219.302" x2="185.645" y2="219.368"/>
		</g>
		<g>
			<path style="fill:#EDBF34;" d="M362.345,199.425c-4.955-5.55-15.969-5.667-22.711-5.79c-9.046-0.165-20.838-0.563-30.922,2.001
				c-4.7,1.195-9.03,3.034-12.536,5.84c-3.604,2.883-6.016,7.633-5.026,12.141c0.887,4.036,4.303,7.14,8.11,8.746
				c3.808,1.605,8.009,1.954,12.129,2.276c12.275,0.958,24.778,1.817,36.831-0.445c0.038,1.621,0.11,3.247,0.493,4.82
				c1.284,5.271,6.339,9.38,11.762,9.558c-3.838-1.787-6.14-5.939-6.819-10.118c-0.293-1.805-0.322-3.626-0.215-5.449
				c3.716-1.041,7.389-2.629,9.776-5.617C367.036,212.608,366.381,203.945,362.345,199.425z"/>
			<path style="fill:none;stroke:#222221;stroke-width:0.5;stroke-miterlimit:10;" d="M304.343,215.365
				c1.203-3.602,3.949-6.659,7.402-8.239c1.159-0.531,2.457-0.904,3.704-0.637c2.41,0.517,3.731,3.219,3.878,5.68
				c0.053,0.888-0.01,1.821-0.461,2.587c-0.451,0.767-1.377,1.31-2.236,1.08c-0.891-0.238-1.423-1.234-1.379-2.156
				c0.044-0.922,0.542-1.762,1.126-2.476c1.276-1.561,3.014-2.71,4.893-3.439c2.471-0.958,5.458-1.145,7.619,0.39
				c2.161,1.535,2.794,5.165,0.731,6.829c-0.42,0.338-0.962,0.584-1.49,0.479c-1.245-0.249-1.359-2.035-0.854-3.2
				c1.198-2.763,4.085-4.545,7.06-5.01c1.395-0.218,2.926-0.153,4.071,0.671c2.162,1.555,1.873,4.958,0.513,7.249
				c-0.253,0.427-0.564,0.861-1.029,1.035c-0.874,0.326-1.844-0.509-1.969-1.433c-0.124-0.924,0.352-1.823,0.913-2.567
				c1.506-1.994,3.767-3.404,6.221-3.878c1.942-0.375,4.289,0.009,5.286,1.717c0.994,1.703,0.196,3.905-0.966,5.499
				c-0.191,0.263-0.444,0.544-0.769,0.532c-0.292-0.011-0.514-0.257-0.698-0.485c-2.099-2.608-0.451-4.387,1.831-6.26
				c1.509-1.239,3.657-1.652,5.518-1.062"/>
		</g>
		<g>
			<g>
				<g>
					<defs>
						
							<rect id="SVGID_1_" x="155.645" y="90.989" transform="matrix(-1 -1.224647e-16 1.224647e-16 -1 400.5359 265.1581)" width="89.246" height="83.181"/>
					</defs>
					<clipPath id="SVGID_00000010293888125379804810000016071101501972009405_">
						<use xlink:href="#SVGID_1_"  style="overflow:visible;"/>
					</clipPath>
					
						<rect x="135.202" y="85.504" transform="matrix(-1 -1.224647e-16 1.224647e-16 -1 394.2611 272.0137)" style="clip-path:url(#SVGID_00000010293888125379804810000016071101501972009405_);fill:#EBAEAE;" width="123.858" height="101.006"/>
					<g style="clip-path:url(#SVGID_00000010293888125379804810000016071101501972009405_);">
						<g id="XMLID_49_">
							<g id="XMLID_51_">
								<path style="fill:#FFFFFF;stroke:#000000;stroke-width:0.5;stroke-miterlimit:10;" d="M191.159,113.069
									c0.093,2.561,0.402,5.293,0.849,7.814c0.423,2.393,0.06,4.827-0.15,7.255c-0.136,1.571-0.311,3.15-0.777,4.657
									c-0.691,2.237-2.086,3.903-3.854,5.41c-0.882,0.751-2.669,1.513-2.616,2.803c0.116,2.807,1.892,5.366,4.212,6.95
									c2.32,1.584,5.129,2.305,7.917,2.646c1.972,0.242,3.973,0.308,5.945,0.063c1.31-0.163,2.621-0.47,3.775-1.11
									c1.052-0.583,1.94-1.426,2.715-2.346c0.974-1.158,1.804-2.505,2.002-4.005c0.242-1.837-0.587-3.107-1.933-4.216
									c-1.243-1.025-1.896-2.51-2.379-4.016c-0.207-0.646-0.787-7.209-0.205-7.23c8.208-0.306,7.445-13.159,7.053-18.616
									c-0.121-1.689-0.325-3.404-1.014-4.951c-2.217-4.973-9.933-4.76-14.267-3.04
									C193.49,103.097,190.971,107.892,191.159,113.069z"/>
							</g>
							<path style="fill:#FFFFFF;stroke:#000000;stroke-width:0.5;stroke-miterlimit:10;" d="M204.622,119.931
								c0.618,1.057,1.818,1.748,3.043,1.752c1.225,0.004,2.429-0.68,3.053-1.733L204.622,119.931z"/>
						</g>
						<path d="M215.71,100.285c0.494,1.076,0.603,2.3,0.072,3.341c-0.677,1.327-2.191,2.023-3.66,2.274
							c-1.469,0.251-2.98,0.157-4.45,0.402c-1.52,0.253-2.582,1.136-3.968,1.603c-1.174,0.395-2.497-0.032-3.706-0.119
							c-4.926-0.357-7.535,6.18-7.66,10.235c-0.031,1.025,0.658,2.178,0.423,3.169c-0.119,0.499-0.646,0.938-1.13,0.765
							c-0.283-0.101-0.466-0.371-0.613-0.632c-1.021-1.811-1.264-3.946-1.97-5.9c-0.65-1.798-1.697-3.455-2.124-5.318
							c-0.684-2.99,0.364-6.206,2.295-8.589c1.632-2.015,4.254-4.088,6.781-4.837c3.175-0.941,6.43-0.25,9.643-0.691
							c0.667-0.092,1.327-0.277,2-0.262c0.686,0.015,1.348,0.235,1.998,0.453c1.744,0.586,3.546,1.205,4.887,2.464
							C215.017,99.098,215.427,99.667,215.71,100.285z"/>
						<g id="XMLID_42_">
							<g id="XMLID_43_">
								<g id="XMLID_46_">
									<path style="fill:#4764A8;" d="M243.131,189.174c-1.456,3.28-3.028,6.465-5.231,9.359
										c-3.129,4.111-5.118,8.886-10.007,11.33c-4.057,2.053-8.735,2.833-13.18,3.547c-8.842,1.42-18.098,2.81-26.588-0.039
										c-6.024-2.021-11.157-6.026-15.997-10.144c-2.2-1.872-4.398-3.795-6.257-6.016c-1.618-1.934-1.758-3.544-2.716-5.578
										c-1.843-3.913-6.512-4.729-9.314-7.781c-0.482-0.525-0.906-1.131-1.075-1.824c-0.196-0.803-0.037-1.646,0.135-2.455
										c1.727-8.145,4.643-16.035,8.609-23.355c3.992-7.367,8.097-11.758,16.078-14.744c3.625-1.356,7.753-2.296,10.932-4.575
										c-0.293,0.21,0.983,3.676,1.175,4.03c0.875,1.616,2.171,3.01,3.748,3.959c2.762,1.663,6.322,1.925,9.298,0.685
										c2.792-1.163,6.093-4.271,5.782-7.583c1.793,1.344,4.028,2.042,6.132,2.741c2.211,0.736,4.451,1.38,6.679,2.063
										c7.905,2.424,13.566,5.948,17.329,13.438c1.776,3.535,3.559,7.086,4.805,10.841c0.955,2.877,1.587,5.85,2.365,8.78
										c0.41,1.545,0.865,3.128,0.68,4.715c-0.139,1.188-0.63,2.303-1.115,3.396C244.625,185.71,243.894,187.455,243.131,189.174z
										"/>
								</g>
							</g>
						</g>
						<path style="fill:#FFFFFF;stroke:#000000;stroke-width:0.5;stroke-miterlimit:10;" d="M193.253,117.269
							c-1.491,0.415-3.226-0.486-3.744-1.945c-1.138-3.205,3.978-5.572,4.968-2.493"/>
						<path style="fill:none;stroke:#1E2652;stroke-width:0.5;stroke-miterlimit:10;" d="M200.424,146.777
							c0.829,8.668,2.208,24.672,2.189,33.379"/>
						<g>
							<defs>
								<path id="SVGID_00000056389226017091289240000008746192694065206441_" d="M191.159,113.069
									c0.093,2.561,0.402,5.293,0.849,7.814c0.423,2.393,0.06,4.827-0.15,7.255c-0.136,1.571-0.311,3.15-0.777,4.657
									c-0.691,2.237-2.086,3.903-3.854,5.41c-1.384,1.179-2.96,2.164-4.093,3.586c-6.226,7.808,9.437,15.021,15.326,15.414
									c4.565,0.305,9.213-0.999,12.982-3.586c2.205-1.514,3.281-4.226,3.367-6.95c0.046-1.454-0.189-2.912-0.686-4.194
									c-0.455-1.177-1.224-2.351-2.424-2.742c-0.559-0.182-1.165-0.178-1.724-0.362c-1.664-0.55-2.62-2.863-3.111-4.396
									c-0.207-0.646-0.787-7.209-0.205-7.23c8.208-0.306,7.445-13.159,7.053-18.616c-0.121-1.689-0.325-3.404-1.014-4.951
									c-2.217-4.973-9.933-4.76-14.267-3.04C193.49,103.097,190.971,107.892,191.159,113.069z"/>
							</defs>
							<clipPath id="SVGID_00000050653125256994915560000013838013402574510767_">
								<use xlink:href="#SVGID_00000056389226017091289240000008746192694065206441_"  style="overflow:visible;"/>
							</clipPath>
							<path style="clip-path:url(#SVGID_00000050653125256994915560000013838013402574510767_);" d="M202.423,126.86
								c0.46-0.231,1.276,0.165,1.665,0.315c0.928,0.355,1.923,0.536,2.917,0.529c0.172-0.001,0.349-0.007,0.511,0.049
								c0.163,0.056,0.311,0.191,0.326,0.363c0.017,0.193-0.132,0.359-0.278,0.486c-0.465,0.405-0.885,0.6-1.47,0.714
								c-0.521,0.102-1.028,0.339-1.569,0.346c-0.908,0.012-2.044-0.378-2.371-1.313c-0.123-0.352-0.157-1.126,0.149-1.407
								C202.341,126.908,202.381,126.881,202.423,126.86z"/>
						</g>
						<path style="fill:#FFFFFF;stroke:#000000;stroke-width:0.5;stroke-miterlimit:10;" d="M191.816,113.186
							c0.542-0.184,1.167,0.164,1.416,0.68c0.249,0.515,0.181,1.138-0.044,1.665"/>
					</g>
					
						<path style="clip-path:url(#SVGID_00000010293888125379804810000016071101501972009405_);fill:none;stroke:#1E2652;stroke-width:0.5;stroke-miterlimit:10;" d="
						M178.39,162.963c-4.012,6.573-7.652,13.374-10.895,20.359"/>
					
						<path style="clip-path:url(#SVGID_00000010293888125379804810000016071101501972009405_);fill:none;stroke:#1E2652;stroke-width:0.5;stroke-miterlimit:10;" d="
						M224.586,163.548c1.267,4.541,2.535,9.081,3.802,13.622"/>
					
						<path style="clip-path:url(#SVGID_00000010293888125379804810000016071101501972009405_);fill:none;stroke:#1E2652;stroke-width:0.5;stroke-miterlimit:10;" d="
						M171.33,145.99c-2.076,1.813-3.839,3.983-5.19,6.386"/>
					
						<path style="clip-path:url(#SVGID_00000010293888125379804810000016071101501972009405_);fill:none;stroke:#1E2652;stroke-width:0.5;stroke-miterlimit:10;" d="
						M164.573,154.589c-0.326,0.605-0.651,1.209-0.977,1.813"/>
					
						<path style="clip-path:url(#SVGID_00000010293888125379804810000016071101501972009405_);fill:none;stroke:#1E2652;stroke-width:0.5;stroke-miterlimit:10;" d="
						M193.584,126.69c0.091,2.12-0.191,4.255-0.829,6.278"/>
					
						<path style="clip-path:url(#SVGID_00000010293888125379804810000016071101501972009405_);fill:none;stroke:#1E2652;stroke-width:0.5;stroke-miterlimit:10;" d="
						M192.193,134.781c-0.139,0.279-0.279,0.558-0.418,0.837"/>
					<path style="clip-path:url(#SVGID_00000010293888125379804810000016071101501972009405_);" d="M178.364,163.224
						c-0.671,0.867-1.209,1.836-1.589,2.864c-0.163,0.44-0.298,0.903-0.271,1.372c0.038,0.642,0.379,1.241,0.387,1.884
						c0.013,1.041-0.839,1.944-0.831,2.985c0.004,0.477,0.19,0.931,0.295,1.397c0.329,1.46-0.211,3.082-1.349,4.054
						c-0.684,0.584-1.611,0.939-2.491,0.758c-0.88-0.181-1.644-0.995-1.592-1.893c0.022-0.387,0.183-0.751,0.342-1.105
						c0.919-2.054,1.844-4.118,3.083-5.997c0.926-1.405,2.039-2.733,2.539-4.34"/>
				</g>
				<g>
					<path style="fill:#8CC9DE;" d="M155.586,90.989h89.305v-3.258c0-1.774-1.438-3.211-3.211-3.211h-82.882
						c-1.773,0-3.211,1.438-3.211,3.211V90.989z"/>
				</g>
			</g>
		</g>
		<g>
			<defs>
				
					<rect id="SVGID_00000084517929712986660290000008814043416176675979_" x="314.736" y="69.803" width="101.276" height="104.523"/>
			</defs>
			<clipPath id="SVGID_00000148651773920561724580000000736220551512248973_">
				<use xlink:href="#SVGID_00000084517929712986660290000008814043416176675979_"  style="overflow:visible;"/>
			</clipPath>
			<g style="clip-path:url(#SVGID_00000148651773920561724580000000736220551512248973_);">
				<g>
					<rect x="314.736" y="100.939" style="fill:#EBAEAE;" width="101.276" height="73.387"/>
					<g>
						<path style="fill:#8CC9DE;" d="M314.521,101.007h101.706v-4.156c0-1.774-1.438-3.211-3.211-3.211h-95.284
							c-1.773,0-3.211,1.438-3.211,3.211V101.007z"/>
					</g>
				</g>
				<g>
					<path style="fill:#FFFFFF;stroke:#222221;stroke-width:0.5;stroke-miterlimit:10;" d="M328.333,146.203
						c-0.403,2.055-0.718,4.124-0.893,6.212c-0.383,4.555-0.173,9.464,1.428,13.794c1.243,3.362,4.872,6.788,8.74,5.297
						c2.543-0.98,3.857-3.746,4.768-6.314c3.164-8.92,7.93-22.463,1.858-31.196c-2.415-3.473-8.922-5.289-11.77-1.421
						c-0.996,1.352-1.474,3.006-1.922,4.624C329.717,140.175,328.928,143.173,328.333,146.203z"/>
					<path style="fill:#FFFFFF;stroke:#000000;stroke-width:0.5;stroke-miterlimit:10;" d="M344.014,122.606
						c-0.054-0.294-0.101-0.589-0.144-0.883c-0.428-2.937-0.829-6.611,2.369-7.539c2.108-0.612,5.802-0.34,7.208-2.301
						c0.451-0.629,0.579-1.427,0.695-2.192c0.165-1.093,0.33-2.187,0.495-3.28c-6.129,1.052-8.686-4.435-9.46-9.567
						c-0.789-5.236-0.625-11.772,3.988-15.28c2.94-2.236,7.058-2.77,10.513-1.464c3.455,1.306,6.163,4.375,7.14,7.937
						c0.723,2.635-0.135,3.595-0.291,6.314c-0.177,3.079,0.098,8.4-0.074,11.48c-0.115,2.07,0.061,4.484,1.184,6.292
						c0.51,0.822,1.143,1.522,2.014,1.971c0.631,0.325,2.28,0.15,2.673,0.582c2.244,2.467,4.343,5.079,6.782,7.345
						c-5.751,2.411-11.765,4.138-17.91,5.192c-4.312,0.74-13.017,3.291-15.992-1.296
						C344.561,124.925,344.23,123.775,344.014,122.606z"/>
					<path style="fill:#D57E7C;" d="M394.962,137.118c-0.615-7.598-4.017-15.374-10.937-19.174c-2.549-1.4-5.342-2.234-8.158-2.904
						c-1.448-0.344-2.906-0.645-4.358-0.974c-1.628-0.369-1.955,0.015-3.059,1.24c-2.285,2.536-5.901,3.662-9.297,3.311
						c-2.153-0.223-4.216-0.996-6.063-2.109c-1.356-0.817-2.109-1.536-2.719-3.074c-0.047-0.119-0.104-0.25-0.22-0.304
						c-0.077-0.036-0.167-0.03-0.252-0.023c-6.315,0.518-12.134,2.299-15.952,7.665c-3.304,4.643-4.569,10.408-5.434,16.04
						c-0.533,3.471-0.943,6.96-1.229,10.46c4.316,0.327,8.649,0.433,12.975,0.317c0.191,6.407,0.795,12.795,1.369,19.202
						c0.394,4.404,1.071,8.73,2.053,13.014c9.981,3.323,21.37,2.514,32.073,1.549c3.052-0.275,6.218-0.586,8.857-2.143
						c7.426-4.381,7.741-17.325,8.802-24.859C394.234,148.523,395.444,143.069,394.962,137.118z"/>
					<path style="fill:#FFFFFF;stroke:#000000;stroke-width:0.5;stroke-miterlimit:10;" d="M350.394,181.859
						c-0.555-0.281-0.977-0.779-1.307-1.724c-0.552-1.581-0.228-3.455,0.661-4.849c1.148-1.799,3.26-3.187,5.342-3.624
						c2.148-0.451,4.232-1.218,6.42-1.661c1.574-0.318,3.122-0.752,4.668-1.185c3.269-0.916,6.537-1.831,9.806-2.747
						c0.794-0.223,1.629-0.394,2.405-0.674c0.739-0.266,0.702-0.195,0.766-0.908c0.071-0.796-0.205-1.656-0.26-2.454
						c-0.08-1.162-0.158-2.324-0.233-3.486c-0.145-2.26-0.28-4.521-0.403-6.782c-0.241-4.421,0.005-8.747,0.789-13.12
						c1.316-7.336,10.096-11.548,15.06-4.545c3.459,4.88,4.167,11.498,4.41,17.305c0.266,6.376-0.105,12.776-2.555,18.763
						c-6.109,14.93-30.104,13.356-43.12,12.143C351.818,182.217,351.021,182.177,350.394,181.859z"/>
					<path d="M367.113,101.89c1.831,0.042,4.158-0.899,5.406-1.685c-0.883-1.466-0.715-3.302-0.699-5.014
						c0.036-3.848-0.882-7.752-2.962-10.989c-2.081-3.237-5.377-5.752-9.142-6.546c-3.581-0.755-7.962,0.046-11.031,2.039
						c-1.283,0.833-6.57,6.138-5.535,7.288c0.353,0.392,0.89,0.552,1.401,0.682c3.711,0.943,7.564,1.046,11.3,1.922
						c0.169,0.04,0.359,0.077,0.507-0.013c0.094-0.058,0.153-0.157,0.208-0.253c0.471-0.83,0.945-3.041,2.019-2.377
						c0.504,0.312,0.699,2.612,0.683,3.203c-0.041,1.472-0.438,2.294,1.008,3.243c1.145,0.752,2.166,1.651,2.62,2.953
						c0.645,1.848,0.934,4.514,2.988,5.324C366.249,101.811,366.666,101.88,367.113,101.89z"/>
					<path style="fill:none;stroke:#222221;stroke-width:0.5;stroke-miterlimit:10;" d="M352.66,98.773
						c-0.515,1.682-2.571,2.703-4.222,2.098"/>
					<g>
						<path style="fill:#FFFFFF;stroke:#000000;stroke-width:0.5;stroke-miterlimit:10;" d="M361.36,98.285
							c3.178,0.795,5.157-2.554,4.191-4.738c-1.344-3.04-5.608-2.536-6.388,0.66"/>
						<path style="fill:none;stroke:#222221;stroke-width:0.5;stroke-miterlimit:10;" d="M362.986,93.289
							c-0.598-0.165-1.288-0.066-1.788,0.256c-0.5,0.322-0.797,0.858-0.769,1.389"/>
					</g>
					<path style="fill:#D57E7C;" d="M376.377,132.155c0.863,3.44,1.05,11.398,1.082,17.448c2.253-0.197,4.495-0.515,6.715-0.953
						c4.831-0.954,9.52-2.442,14.074-4.289c-1.346-8.626-3.842-16.888-9.998-23.106"/>
					<g>
						<path d="M377.391,186.598h-48.883c-0.716,0-1.296-0.58-1.296-1.296l0,0c0-0.716,0.58-1.296,1.296-1.296h48.883
							c0.716,0,1.296,0.58,1.296,1.296l0,0C378.687,186.017,378.106,186.598,377.391,186.598z"/>
						<path d="M370.139,184.839h-42.782l-8.886-21.944c-0.289-0.715,0.236-1.495,1.007-1.495h40.437
							c0.443,0,0.841,0.268,1.007,0.679L370.139,184.839z"/>
						<path style="fill:none;stroke:#FFFFFF;stroke-width:0.5;stroke-miterlimit:10;" d="M339.801,173.134
							c0.455,1.189,1.989,2.153,3.427,2.153c1.438,0,2.235-0.964,1.78-2.153c-0.455-1.189-1.989-2.152-3.427-2.152
							C340.143,170.982,339.347,171.945,339.801,173.134z"/>
					</g>
					<path d="M354.313,106.296c0.079,0.817,0.009,1.641-0.065,2.459c0.053-0.015,0.108-0.026,0.161-0.043
						c1.681-0.521,3.073-1.892,3.778-3.505C357.002,105.862,355.665,106.229,354.313,106.296z"/>
					<circle cx="363.096" cy="96.793" r="0.988"/>
					<path d="M398.253,146.484c-0.07-0.408-0.118-0.82-0.141-1.234c-0.046-0.291-0.103-0.579-0.177-0.863
						c-0.304,0.243-0.632,0.457-0.986,0.619c-0.386,0.176-0.793,0.3-1.199,0.423c-1.209,0.366-2.418,0.733-3.628,1.099
						c-0.472,0.143-0.924,0.299-1.352,0.549c0.396-0.112,0.825-0.131,1.238-0.063c0.572,0.094,1.124,0.303,1.701,0.36
						c0.5,0.05,1.005-0.015,1.506,0.021c1.048,0.075,2.161,0.566,3.103,0.164C398.3,147.2,398.28,146.842,398.253,146.484z"/>
					<path style="fill:#FFFFFF;stroke:#000000;stroke-width:0.5;stroke-miterlimit:10;" d="M395.121,168.976
						c-0.53,1.795-1.503,3.457-2.807,4.798"/>
					<path style="fill:#FFFFFF;stroke:#000000;stroke-width:0.5;stroke-miterlimit:10;" d="M391.322,174.733
						c-0.468,0.364-0.936,0.728-1.403,1.091"/>
					<path style="fill:#FFFFFF;stroke:#000000;stroke-width:0.5;stroke-miterlimit:10;" d="M391.864,172.7
						c-0.263,0.256-0.527,0.512-0.791,0.768"/>
					<path style="fill:none;stroke:#000000;stroke-width:0.5;stroke-miterlimit:10;" d="M395.995,143.621
						c-1.247,0.468-2.495,0.936-3.742,1.403"/>
					<path style="fill:none;stroke:#000000;stroke-width:0.5;stroke-miterlimit:10;" d="M392.703,130.56
						c0.669,1.516,1.21,3.089,1.617,4.696"/>
					<path style="fill:none;stroke:#000000;stroke-width:0.5;stroke-miterlimit:10;" d="M394.58,136.191
						c0.109,0.484,0.218,0.968,0.327,1.452"/>
					<path style="fill:none;stroke:#000000;stroke-width:0.5;stroke-miterlimit:10;" d="M395.212,138.944
						c0.069,0.329,0.139,0.658,0.208,0.987"/>
					<path style="fill:none;stroke:#000000;stroke-width:0.5;stroke-miterlimit:10;" d="M365.278,104.277
						c0.009,1.476,0.097,2.951,0.262,4.418"/>
					<path style="fill:none;stroke:#000000;stroke-width:0.5;stroke-miterlimit:10;" d="M365.687,109.839
						c0.088,0.578,0.213,1.151,0.374,1.713"/>
					<path style="fill:none;stroke:#000000;stroke-width:0.5;stroke-miterlimit:10;" d="M340.268,147.749
						c0.15-2.316,0.299-4.631,0.449-6.946"/>
					<path style="fill:none;stroke:#000000;stroke-width:0.5;stroke-miterlimit:10;" d="M340.973,139.281
						c0.162-0.876,0.229-1.769,0.198-2.659"/>
					<path style="fill:none;stroke:#000000;stroke-width:0.5;stroke-miterlimit:10;" d="M378.077,149.704
						c-0.247-0.064-0.494-0.128-0.741-0.192c-0.779-1.172-0.929-2.637-1.095-4.035c-0.439-3.704-1.142-7.376-2.094-10.982"/>
				</g>
			</g>
		</g>
		<g>
			<g>
				<line style="fill:none;stroke:#110809;stroke-miterlimit:10;" x1="227.871" y1="264.405" x2="223.907" y2="287.281"/>
				<line style="fill:none;stroke:#110809;stroke-miterlimit:10;" x1="216.192" y1="259.722" x2="219.567" y2="283.112"/>
				<line style="fill:none;stroke:#110809;stroke-miterlimit:10;" x1="223.907" y1="255.792" x2="221.971" y2="283.112"/>
				<polygon style="fill:#D57E7C;" points="228.145,292.795 215.798,292.795 214.939,276.136 229.004,276.136 				"/>
			</g>
			<path style="fill:#EDC4AC;" d="M197.591,270.276l0.605,8.536l-14.65-3.632l0.969-8.293l5.184,1.578
				c0.246,0.075,0.513,0.047,0.738-0.078l3.243-1.792c0.642-0.354,1.401-0.427,2.098-0.202"/>
			<g>
				<rect id="XMLID_696_" x="111.722" y="329.548" style="fill:#110809;" width="4.046" height="57.577"/>
				<path id="XMLID_695_" style="fill:none;stroke:#110809;stroke-miterlimit:10;" d="M91.499,398.902
					c0-8.288,14.664-11.763,21.992-11.777c8.722-0.017,21.991,3.199,21.991,11.777"/>
				
					<line id="XMLID_694_" style="fill:none;stroke:#110809;stroke-miterlimit:10;" x1="113.737" y1="401.118" x2="113.737" y2="387.352"/>
				<path id="XMLID_693_" style="fill:#110809;" d="M139.08,400.901c0,1.987-1.611,3.599-3.598,3.599s-3.599-1.611-3.599-3.599
					c0-1.988,1.611-3.599,3.599-3.599S139.08,398.914,139.08,400.901z"/>
				<path id="XMLID_692_" style="fill:#110809;" d="M117.271,400.901c0,1.987-1.611,3.599-3.599,3.599
					c-1.987,0-3.599-1.611-3.599-3.599c0-1.988,1.611-3.599,3.599-3.599C115.66,397.303,117.271,398.914,117.271,400.901z"/>
				<path id="XMLID_691_" style="fill:#110809;" d="M95.461,400.901c0,1.987-1.611,3.599-3.599,3.599
					c-1.987,0-3.599-1.611-3.599-3.599c0-1.988,1.611-3.599,3.599-3.599C93.85,397.303,95.461,398.914,95.461,400.901z"/>
				<path id="XMLID_690_" style="fill:#110809;" d="M112.729,313.021c-1.432-2.678-1.036-5.506-1.032-8.553
					c0.006-4.981,0-9.962,0-14.942c0-5.106,0.022-10.047,0.636-15.054c0.907-7.401-1.728-13.79-7.348-18.712
					c-3.641-3.188-8.424-4.741-13.156-5.753c-2.697-0.577-5.521-1.002-8.193-0.315c-3.766,0.968-6.706,4.066-8.372,7.579
					c-1.666,3.513-2.231,7.436-2.658,11.301c-1.177,10.659-0.835,21.171-0.951,31.839c-0.088,8.164-0.475,17.389,2.927,25.025
					c2.074,4.655,6.419,7.308,10.954,9.191c4.985,2.069,10.414,2.802,15.79,3.276c7.621,0.672,15.285,0.86,22.931,0.563
					c4.587-0.178,9.208-0.538,13.613-1.827c1.091-0.319,2.246-0.755,2.867-1.708c0.821-1.26,0.377-3.023-0.613-4.154
					c-0.99-1.132-2.403-1.784-3.763-2.426c-7.082-3.341-19.038-7.963-23.345-14.835
					C112.913,313.353,112.818,313.187,112.729,313.021z"/>
			</g>
			<path style="fill:#FFFFFF;stroke:#000000;stroke-width:0.5;stroke-miterlimit:10;" d="M185.899,398.198
				c0.162,0.329,9.133-2.91,9.952-3.473c-2.299-5.749-4.598-11.498-6.897-17.246c-2.255-5.639-4.889-11.105-7.021-16.81
				c-0.796-2.131-1.613-4.34-3.2-5.97c-1.587-1.63-4.183-2.518-6.193-1.453c-0.933,0.494-1.633,1.342-2.177,2.248
				c-1.594,2.654-2.008,5.896-1.641,8.97c0.368,3.074,1.468,6.012,2.734,8.837c2.068,4.615,4.642,8.896,7.499,13.057
				c1.171,1.705,1.918,3.564,3.098,5.289C183.484,393.735,184.819,395.905,185.899,398.198z"/>
			<path style="fill:#110809;" d="M199.003,398.856c1.607-0.805,3.283-1.339,4.971-1.909c1.104-0.441,2.204-0.893,3.295-1.366
				c2.323-1.213,4.336-2.844,6.212-4.727c-0.04-0.151-0.102-0.304-0.195-0.461c-0.39-0.661-1.149-1.017-1.897-1.186
				c-1.67-0.378-3.347-0.012-4.954,0.438c-1.663,0.466-3.381,0.796-5.07,1.175c-1.09,0.245-2.196,0.491-3.312,0.445
				c-1.116-0.046-2.264-0.418-3.022-1.239c-0.254-0.276-0.569-0.633-0.925-0.514c-0.133,0.044-0.235,0.15-0.331,0.252
				c-1.336,1.416-3.28,2.043-5.134,2.54c-0.443,0.119-5.768,1.555-5.517,2.057c0.838,2.09,2.15,4.075,3.239,6.056
				c0.566,1.028,1.18,2.107,2.198,2.691c0.395,0.226,0.831,0.347,1.28,0.402c2.248-1.073,4.469-2.197,6.709-3.286
				C197.353,399.74,198.166,399.276,199.003,398.856z"/>
			<path style="fill:#A8DCA4;" d="M185.579,319.135c-0.117-0.797-0.574-1.53-0.615-2.344c-0.778-15.572-40.823-16.964-51.328-17.697
				c-3.551-0.248-7.213-0.289-10.557,0.931c-6.059,2.21-12.654,10.184-12.468,16.867c0.181,6.483,4.604,13.218,11.595,13.431
				c0.155,0.005,0.307-0.011,0.46-0.007c10.432,0.057,20.864,0.114,31.295,0.17c4.957,0.027,9.897,0.527,14.853,0.572
				c3.897,0.035,8.77,0.748,12.227-1.477C184.578,327.304,186.162,323.1,185.579,319.135z"/>
			<path style="fill:#A8DCA4;" d="M131.591,305.34c-8.99-3.538-18.052-4.381-27.601-4.877c-5.845-0.303-11.713-0.374-17.545,0.179
				c-0.628,0.059-1.3,0.145-1.774,0.561c-0.409,0.359-0.597,0.902-0.748,1.424c-1.584,5.452-0.906,11.524,1.841,16.492
				s7.528,8.772,12.986,10.331c3.409,0.973,6.991,1.094,10.521,1.423c13.233,1.233,25.977,5.447,39.196,6.772
				c8.065,0.808,15.029,5.224,22.948,6.989c0.388,0.085,0.775,0.149,1.169,0.193c5.698,0.647,10.286-2.669,11.545-8.393
				c1.378-6.263-2.202-12.112-8.809-16.517C167.491,314.7,135.896,307.034,131.591,305.34z"/>
			<path style="fill:#A8DCA4;" d="M181.508,384.724c2.531-0.853,5.145-1.424,7.733-2.073c2.712-0.681,5.371-1.529,7.955-2.602
				c0.762-0.317,1.516-0.654,2.262-1.006c-2.217-7.103-6.286-19.195-7.11-20.577c-7.289-12.224-9.597-26.171-19.453-36.749
				c-2.222-2.385-4.754-4.576-7.775-5.8c-4.327-1.753-9.84-0.964-12.925,2.831c-2.954,3.634-3.082,10.627-1.877,14.589
				c2.097,6.893,7.556,14.037,10.515,20.607c2.733,6.07,5.826,11.98,8.304,18.158c2.097,5.228,3.766,10.658,6.257,15.694
				C177.224,386.419,179.332,385.458,181.508,384.724z"/>
			<path style="fill:#D57E7C;" d="M169.659,262.549c-6.454-1.122-13.339-1.474-17.872-6.651
				c-6.441-7.354-9.533-18.112-16.727-24.625c-0.867-0.786-1.743-1.572-2.733-2.196c-2.89-1.819-10.55-4.381-12.148,0.203
				c-3.036,8.714,1.746,19.056,6.002,26.49c3.177,5.549,6.913,10.923,11.999,14.798c9.166,6.983,21.343,8.191,32.827,9.14
				c4.236,0.35,8.554,0.693,12.693-0.273c0.399-1.106,2.496-14.344,1.816-14.379C180.435,264.793,174.372,263.368,169.659,262.549z"
				/>
			<path style="fill:#D57E7C;" d="M135.93,234.214c0.028-0.799,1.096-0.163,0.748-0.875c-0.382-0.78-2.196-2.781-2.918-3.263
				c-3.707-2.473-8.16-4.038-12.624-4.181c-6.005-0.193-12.086,0.082-17.96,2.377c-13.535,5.288-16.76,16.867-18.353,30.184
				c-0.669,5.592,0.041,8.875-0.628,14.467c-1.484,12.413-3.262,27.575-2.311,39.67c17.441-2.421,34.572-7.068,50.845-13.793
				c0.142-0.059-0.616-7.747-0.629-8.519c-0.051-2.88,0.048-5.76,0.243-8.633c0.391-5.748,1.168-11.461,1.906-17.172
				c0.643-4.969,1.259-9.945,1.569-14.948c0.309-4.996-0.136-9.97,0.094-14.945C135.921,234.46,135.926,234.337,135.93,234.214z"/>
			<path style="fill:#FFFFFF;stroke:#000000;stroke-width:0.5;stroke-miterlimit:10;" d="M129.244,203.715
				c-0.429-1.405-0.978-2.814-1.954-3.912c-2.644-2.977-7.291-0.841-10.581-0.154c-3.872,0.809-6.356,4.604-5.547,8.477
				c0.217,1.04,0.435,2.08,0.652,3.12c0.311,1.489,0.207,2.699,1.151,3.966c0.35,0.469,0.754,0.92,0.925,1.48
				c0.095,0.31,0.112,0.637,0.118,0.961c0.054,2.914-1.094,6.003-1.812,8.836c-0.982,3.876,1.474,7.786,5.392,8.585
				c3.918,0.799,7.709-1.837,8.323-5.788c0.42-2.702,0.426-5.464,0.652-8.215c0.029-0.355,0.064-0.722,0.241-1.031
				c0.203-0.354,0.564-0.581,0.894-0.821C132.612,215.645,130.737,208.602,129.244,203.715z"/>
			<path id="XMLID_198_" style="fill:#110809;" d="M131.339,201.419c-0.461,0.799-1.226,1.428-2.077,1.806
				c-1.122,0.498-2.382,0.605-3.608,0.554c-0.861-0.035-1.724-0.145-2.582-0.06c-1.024,0.101-2.026,0.619-2.733,1.362
				c-0.433,0.456-0.619,1.054-0.832,1.63c-0.128,0.347-0.187,0.808-0.632,0.86c-0.259,0.03-0.508-0.048-0.763-0.058
				c-0.262-0.011-0.501,0.075-0.737,0.183c-0.482,0.221-0.463-0.449-0.832-0.53c-0.131-0.029-0.352,0.062-0.473,0.108
				c-0.316,0.122-0.593,0.341-0.775,0.627c-0.334,0.523-0.534,1.193-0.563,1.812c-0.08,1.742,0.045,3.487-0.074,5.228
				c-0.075,1.1-0.567,2.489-1.669,2.476c-0.692-0.008-1.217-0.606-1.612-1.175c-2.298-3.306-3.473-7.377-3.291-11.399
				c0.152-3.35,0.797-7.062,4.736-7.674c1.314-0.204,2.749-0.203,3.811-1.004c0.52-0.392,0.899-0.945,1.414-1.344
				c0.515-0.398,1.276-0.614,1.806-0.236c0.365,0.26,0.529,0.738,0.9,0.989c0.3,0.203,0.686,0.225,1.047,0.195
				c1.015-0.083,1.996-0.527,2.728-1.235c0.641-0.62,1.244-1.502,2.135-1.464c0.773,0.033,1.359,0.961,1.055,1.673
				c-0.052,0.123-0.126,0.241-0.136,0.374c-0.026,0.345,0.416,0.575,0.745,0.466c0.329-0.109,0.54-0.426,0.693-0.737
				c0.153-0.311,0.281-0.649,0.537-0.882c0.451-0.409,1.198-0.352,1.686,0.013c0.488,0.365,0.749,0.966,0.859,1.565
				c0.182,0.989-0.025,1.931-0.173,2.906c-0.107,0.708-0.064,1.458-0.253,2.156C131.602,200.893,131.486,201.165,131.339,201.419z"
				/>
			<path style="fill:#FFFFFF;stroke:#000000;stroke-width:0.5;stroke-miterlimit:10;" d="M135.849,284.27
				c-0.369,0.071-0.736,0.152-1.1,0.242c-0.672,0.167-1.34,0.363-2.029,0.428c-0.518,0.049-1.041,0.022-1.561-0.008
				c-5.286-0.307-10.552-0.965-15.751-1.967c-2.405-0.463-4.798-0.927-7.216-1.334c-2.356-0.397-5.41-1.488-7.782-1.31
				c-2.768,0.208-5.528,0.47-8.269,0.858c-1.243,3.698-2.797,7.277-4.271,10.89c6.347-0.003,12.693-0.005,19.04-0.008
				c10.641-0.004,21.498-0.549,32.076,0.089c1.6,0.096,3.205,0.033,4.807-0.031c1.974-0.076,4.315,0.147,6.214-0.316
				c-0.054-3.109-3.094-5.878-5.765-6.965C141.605,283.766,138.655,283.729,135.849,284.27z"/>
			<path style="fill:none;stroke:#000000;stroke-width:0.5;stroke-miterlimit:10;" d="M148.421,290.658
				c-0.62-1.315-1.683-2.389-2.902-3.181c-1.219-0.792-2.593-1.319-3.988-1.729"/>
			<path style="fill:none;stroke:#000000;stroke-width:0.5;stroke-miterlimit:10;" d="M146.426,290.806
				c-1.063-1.605-2.963-2.68-5.448-2.835"/>
			<path style="fill:#D57E7C;" d="M94.853,278.048c0.745-4.82,2.234-9.743,3.372-14.14c3.173-12.283,7.696-24.297,9.969-36.767
				c-4.679,0.563-9.117,2.574-12.91,5.372c-4.803,3.542-9.544,8.649-12.195,14.008c-3.049,6.163-4.597,12.953-5.77,19.728
				c-1.247,7.199-5.16,19.494,1.986,24.464c3.445,2.396,12.98,0.653,17.217,0.789c2.229,0.072,26.682,2.013,27.046,0.871
				c0.081-0.254,0.628-1.689,0.712-1.942c0.433-2.239,1.882-7.539,2.28-9.793L94.853,278.048z"/>
			<rect x="48.981" y="291.939" style="fill:#EDBF34;" width="188.44" height="2.672"/>
			<g id="XMLID_1_">
				<path id="XMLID_7_" style="fill:#4764A8;" d="M193.669,292.073h-52.764l0,0c0-1.019,0.826-1.844,1.844-1.844h50.92V292.073z"/>
				<path id="XMLID_6_" style="fill:#4764A8;" d="M202.734,290.229h-52.726l9.403-27.848c0.323-0.957,1.283-1.609,2.369-1.609
					h47.528c1.673,0,2.867,1.497,2.369,2.971L202.734,290.229z"/>
				<rect id="XMLID_5_" x="149.755" y="290.229" style="fill:#4764A8;" width="52.979" height="1.844"/>
				<path id="XMLID_2_" style="fill:#110809;" d="M182.047,272.879c-0.068-0.017-0.128-0.014-0.182,0.001
					c-0.047-0.028-0.105-0.046-0.175-0.047c-1.126-0.01-2.091,0.87-2.157,1.904c-0.065,1.013,0.84,1.765,1.885,1.852
					c1.042,0.087,2.017-0.499,2.166-1.486C183.729,274.133,183.081,273.138,182.047,272.879z"/>
			</g>
			<path style="fill:none;stroke:#110809;stroke-width:0.5;stroke-miterlimit:10;" d="M163.168,316.378
				c-6.175-5.042-14.891-4.907-22.764-6.16c-5.743-0.914-11.347-2.694-16.565-5.261"/>
			<path style="fill:none;stroke:#110809;stroke-width:0.5;stroke-miterlimit:10;" d="M102.452,248.708
				c-2.283,7.85-4.566,15.701-6.849,23.551c-0.463,1.592-0.889,3.442,0.063,4.799c0.954,1.36,2.842,1.587,4.499,1.692
				c7.964,0.503,15.928,1.007,23.892,1.51c0.743,0.047,1.357,0.116,2.075,0.309c0.04,0.011,0.083,0.024,0.105,0.058
				c0.023,0.035,0.019,0.081,0.013,0.123c-0.147,1.045-0.294,2.091-0.44,3.136"/>
			<path id="XMLID_9_" style="fill:#FFFFFF;stroke:#000000;stroke-width:0.5;stroke-miterlimit:10;" d="M116.804,212.792
				c-4.758,3.023-6.689-5.93-2.198-6.307c1.025-0.086,2.047,0.456,2.666,1.276"/>
			<path style="fill:#FFFFFF;stroke:#000000;stroke-width:0.5;stroke-miterlimit:10;" d="M181.241,374.921
				c0.444,1.843,0.89,3.686,1.341,5.528c0.944,3.852,2.096,3.736,5.952,3.736c4.816,0,3.569-4.448,3.594-7.942
				c0.035-5.013-0.104-10.028-0.417-15.032c-0.124-1.986-0.291-4.028-1.18-5.808c-0.889-1.78-2.678-3.255-4.665-3.177
				c-2.303,0.09-5.479,3.105-6.566,5.104c-1.794,3.299-0.278,8.39,0.541,11.776C180.309,371.045,180.774,372.983,181.241,374.921z"
				/>
			<path style="fill:#110809;" d="M182.873,386.646c0.099,0.217,0.223,0.407,0.366,0.575c1.113-0.188,2.231-0.346,3.354-0.455
				c2.799-0.271,5.611-0.35,8.415-0.535c2.466-0.163,4.926-0.452,7.386-0.697c2.352-0.234,13.052-0.655,9.508-5.146
				c-1.576-1.997-4.054-1.199-6.178-1.168c-2.354,0.035-4.763-0.332-7.02-0.996c-2.142-0.631-4.396-1.664-5.428-3.753
				c-3.999,0.559-7.997,1.118-11.996,1.678c0.201,2.438,0.511,4.865,0.927,7.272C182.389,384.479,182.462,385.741,182.873,386.646z"
				/>
			<path style="fill:#A8DCA4;" d="M175.186,306.004c-2.279-0.973-4.709-1.675-7.106-2.292c-0.612-0.158-1.251-0.312-1.87-0.184
				c-1.852,0.383-2.304,2.834-2.057,4.709c0.427,3.234-0.525,6.18-0.294,9.426c0.221,3.112,1.019,6.15,1.813,9.167
				c2.009,7.634,2.225,16.58,4.508,24.136c1.37,4.535,2.224,9.749,3.292,14.354c0.42,1.811,1.107,6.286,2.92,7.04
				c1.321,0.549,2.823,0.249,4.22-0.058c6.383-1.407,14.865-3.882,20.855-6.498c-2.616-9.555-4.678-15.122-6.227-24.907
				c-0.63-3.981-2.935-10.882-3.982-14.764c-1.189-4.407-3.541-8.103-6.194-11.774c-1.11-1.536-2.239-3.074-3.61-4.383
				C179.643,308.248,177.491,306.987,175.186,306.004z"/>
			<path style="fill:none;stroke:#110809;stroke-width:0.5;stroke-miterlimit:10;" d="M163.609,316.975
				c2.887,10.851,4.637,21.954,6.531,33.008c0.963,5.619,2.107,20.92,2.86,23.16c1.902,0.154,6.433-0.235,8.257-0.793
				c2.88-0.881,5.663-1.333,8.511-2.313c2.154-0.741,4.307-1.482,6.461-2.223"/>
			<path style="fill:#FFFFFF;stroke:#000000;stroke-width:0.5;stroke-miterlimit:10;" d="M124.459,214.503
				c0.66,1.008,2.004,1.511,3.164,1.186c1.16-0.326,2.045-1.454,2.085-2.659"/>
			<path style="fill:#FFFFFF;stroke:#000000;stroke-width:0.5;stroke-miterlimit:10;" d="M114.582,208.915
				c0.53-0.102,1.104,0.061,1.502,0.426c0.397,0.365,0.608,0.924,0.551,1.46"/>
			<g>
				<defs>
					<path id="SVGID_00000099635192756791796370000008354508012077275803_" d="M129.244,203.715
						c-0.429-1.405-0.978-2.814-1.954-3.912c-2.644-2.977-7.291-0.841-10.581-0.154c-3.872,0.809-6.356,4.604-5.547,8.477
						c0.217,1.04,0.435,2.08,0.652,3.12c0.311,1.489,0.207,2.699,1.151,3.966c0.35,0.469,0.754,0.92,0.925,1.48
						c0.095,0.31,0.112,0.637,0.118,0.961c0.054,2.914-1.094,6.003-1.812,8.836c-0.982,3.876,1.474,7.786,5.392,8.585
						c3.918,0.799,7.709-1.837,8.323-5.788c0.42-2.702,0.426-5.464,0.652-8.215c0.029-0.355,0.064-0.722,0.241-1.031
						c0.203-0.354,0.564-0.581,0.894-0.821C132.612,215.645,130.737,208.602,129.244,203.715z"/>
				</defs>
				<clipPath id="SVGID_00000076566937303470671430000007173326828566493361_">
					<use xlink:href="#SVGID_00000099635192756791796370000008354508012077275803_"  style="overflow:visible;"/>
				</clipPath>
				<path style="clip-path:url(#SVGID_00000076566937303470671430000007173326828566493361_);fill:#110809;" d="M124.135,220.501
					c-0.487,0.139-0.981,0.245-1.486,0.287c-0.27,0.023-0.55,0.029-0.794,0.145c-0.99,0.473,0.109,0.959,0.639,1.003
					c1.29,0.108,2.58,0.215,3.87,0.323c0.825,0.069,1.796,0.078,2.31-0.573c0.672-0.855-0.077-1.688-0.601-2.357
					c-0.032-0.041-0.066-0.084-0.113-0.107c-0.083-0.04-0.181-0.009-0.268,0.023c-0.663,0.242-1.326,0.484-1.989,0.727
					C125.185,220.161,124.664,220.351,124.135,220.501z"/>
			</g>
			<path style="fill:none;stroke:#110809;stroke-width:0.5;stroke-miterlimit:10;" d="M133.764,267.139
				c0.105-5.839-0.121-11.683-0.676-17.496"/>
			<path style="fill:none;stroke:#110809;stroke-width:0.5;stroke-miterlimit:10;" d="M77.537,284.057
				c0.187,1.119,0.382,2.264,0.939,3.253c0.557,0.989,1.557,1.807,2.691,1.824"/>
			<path style="fill:none;stroke:#110809;stroke-width:0.5;stroke-miterlimit:10;" d="M76.815,279.631
				c0.003,0.636,0.081,1.271,0.231,1.889"/>
			<path style="fill:#110809;" d="M101.615,264.37c-0.155-0.415-0.416-0.789-0.532-1.217c-0.243-0.894,0.18-1.839,0.1-2.762
				c-0.054-0.613-0.327-1.186-0.446-1.79c-0.151-0.771-0.046-1.565,0.059-2.344c0.087-0.64,0.173-1.279,0.26-1.919
				c-0.081,0.154-0.157,0.31-0.236,0.465l-3.623,12.242c1.22-0.32,2.431-0.676,3.63-1.069c0.242-0.079,0.494-0.167,0.669-0.352
				C101.798,265.303,101.77,264.786,101.615,264.37z"/>
			<path style="fill:none;stroke:#110809;stroke-width:0.5;stroke-miterlimit:10;" d="M149.968,274.886
				c0.867,0.394,1.864,0.494,2.792,0.28"/>
			<path style="fill:none;stroke:#110809;stroke-width:0.5;stroke-miterlimit:10;" d="M116.969,219.903
				c0.514,0.233,1.028,0.466,1.542,0.699"/>
			<path style="fill:none;stroke:#000000;stroke-width:0.5;stroke-miterlimit:10;" d="M153.161,338.193
				c0.883-0.603,1.766-1.206,2.648-1.809"/>
			<g>
				
					<line style="fill:none;stroke:#EDBF34;stroke-width:2;stroke-miterlimit:10;" x1="67.672" y1="294.389" x2="56.108" y2="405.994"/>
				
					<line style="fill:none;stroke:#EDBF34;stroke-width:2;stroke-miterlimit:10;" x1="217.95" y1="294.389" x2="229.514" y2="405.994"/>
			</g>
		</g>
		<g>
			<path style="fill:#110809;" d="M372.976,403.229c0.67-0.477,1.352-0.939,2.037-1.399c0.352-0.272,0.704-0.543,1.052-0.816
				c1.959-1.535,4.006-3.255,5.466-5.304c1.107-1.554,1.66-3.76,0.595-5.343c-0.417-0.619-1.031-1.071-1.62-1.529
				c-1.976-1.537-3.79-3.28-5.406-5.192c-1.207-1.428-1.985-3.048-3.106-4.543c-2.395-3.197-6.466-4.008-9.019-1.798
				c-2.207,1.91-2.492,5.598-0.866,8.714c0.537,1.029,1.072,1.996,1.553,2.942c4.037,7.94-1.982,12.203-5.77,18.927
				c-0.803,1.425-1.362,3.467-0.091,4.497c1.261,1.022,3.108,0.089,4.435-0.846c0.813-0.573,1.625-1.145,2.438-1.718
				c0.984-0.813,1.977-1.615,2.974-2.413C369.408,405.998,371.138,404.539,372.976,403.229z"/>
			<path style="fill:#FFFFFF;stroke:#000000;stroke-width:0.5;stroke-miterlimit:10;" d="M332.435,305.153
				c0.197,0.585,0.805,1.226,2.002,1.914c1.541,0.887,3.415,0.907,5.193,0.869c8.865-0.187,17.712-1.226,26.379-3.098
				c2.802-0.605,5.716-1.365,7.822-3.311c1.356-1.253,2.267-2.904,3.111-4.546c3.743-7.286,6.252-15.005,8.851-22.73
				c1.963-5.836,4.097-13.346-2.123-17.484c-4.979-3.312-8.228,0.309-9.958,4.971c-0.921,2.481-1.48,5.082-2.077,7.655
				c-0.823,3.547-1.789,6.408-3.397,9.739c-1.049,2.172-2.103,4.354-3.471,6.341c-1.595,2.318-3.58,4.313-5.807,6.028
				c-4.148,3.195-9.128,5.565-13.99,7.404c-2.795,1.057-5.627,2.012-8.493,2.859C334.466,302.358,331.894,303.545,332.435,305.153z"
				/>
			<g>
				
					<rect id="XMLID_232_" x="393.816" y="346.417" transform="matrix(-1 -1.224647e-16 1.224647e-16 -1 792.0347 748.4791)" style="fill:#110809;" width="4.403" height="55.645"/>
				<path id="XMLID_231_" style="fill:none;stroke:#110809;stroke-miterlimit:10;" d="M418.074,413.739
					c0-8.217-14.539-11.663-21.804-11.677c-8.648-0.017-21.804,3.172-21.804,11.677"/>
				
					<line id="XMLID_230_" style="fill:none;stroke:#110809;stroke-miterlimit:10;" x1="396.025" y1="415.936" x2="396.025" y2="402.287"/>
				<path id="XMLID_229_" style="fill:#110809;" d="M370.898,415.721c0,1.971,1.597,3.568,3.568,3.568
					c1.97,0,3.568-1.597,3.568-3.568c0-1.971-1.598-3.568-3.568-3.568C372.495,412.153,370.898,413.751,370.898,415.721z"/>
				<path id="XMLID_228_" style="fill:#110809;" d="M392.522,415.721c0,1.971,1.597,3.568,3.568,3.568
					c1.97,0,3.568-1.597,3.568-3.568c0-1.971-1.598-3.568-3.568-3.568C394.119,412.153,392.522,413.751,392.522,415.721z"/>
				<path id="XMLID_227_" style="fill:#110809;" d="M414.145,415.721c0,1.971,1.597,3.568,3.568,3.568s3.568-1.597,3.568-3.568
					c0-1.971-1.597-3.568-3.568-3.568S414.145,413.751,414.145,415.721z"/>
				<path id="XMLID_226_" style="fill:#110809;" d="M397.465,325.947c2.248-6.439,1.003-14.798,1.003-22.862
					c0-13.112-2.357-26.836,10.115-35.515c4.797-3.338,11.247-4.16,16.728-2.132c8.296,3.07,11.327,10.526,12.126,18.687
					c1.323,13.521,0.31,27.65-1.163,41.219c-0.562,5.357-1.391,10.945-4.56,15.301c-3.407,4.683-9.101,7.256-14.813,8.213
					c-5.712,0.957-11.55,0.494-17.336,0.24c-8.048-0.353-16.113-0.297-24.155,0.168c-2.369,0.137-4.867,0.285-6.988-0.778
					c-2.121-1.063-3.592-3.819-2.413-5.878c0.852-1.489,2.677-2.06,4.334-2.507c5.108-1.376,10.217-2.753,15.326-4.129
					C392.502,334.134,395.866,330.526,397.465,325.947z"/>
			</g>
			<path style="fill:#FFFFFF;stroke:#000000;stroke-width:0.5;stroke-miterlimit:10;" d="M365.333,406.631
				c0.159-2.119,0.193-4.224,0.298-6.407c0.099-2.051-0.048-4.204-0.306-6.239c-0.128-1.008-0.32-2.037-0.856-2.9
				c-0.453-0.731-1.13-1.302-1.86-1.756c-1.079-0.671-2.319-1.117-3.589-1.133c-1.27-0.017-2.568,0.423-3.469,1.318
				c-0.882,0.875-2.99,0.462-3.34,1.653c-1.238,4.21-0.008,10.238-0.44,14.606c-0.129,1.301-0.257,2.603-0.386,3.904
				c-0.064,0.651-0.125,1.33,0.116,1.938c0.304,0.767,0.955,2.043,1.635,2.518c0.781,0.547,1.811,0.526,2.764,0.484
				c1.519-0.066,3.037-0.133,4.556-0.199c1.205-0.053,2.54-0.162,3.366-1.041c0.58-0.617,0.781-1.491,0.943-2.322
				C365.055,409.553,365.223,408.089,365.333,406.631z"/>
			<path style="fill:#110809;" d="M333.305,418.994c2.416,0.07,4.829,0.221,7.244,0.309c4.849,0.176,9.635-0.289,14.455-0.752
				c2.112-0.203,4.227-0.379,6.34-0.571c1.281-0.117,2.648-0.238,3.948-0.05c0.211-0.418,0.34-0.898,0.34-1.412
				c0-2.616,0.206-5.315,0-7.92c-0.111-1.395-1.333-0.906-2.483-0.916c-1.402-0.012-2.803-0.091-4.198-0.238
				c-2.789-0.293-5.549-0.856-8.229-1.681c-0.021,0.759-0.299,1.475-0.733,2.1c-0.397,0.572-0.924,1.067-1.504,1.449
				c-1.214,0.799-2.646,1.188-4.05,1.565c-2.268,0.608-4.534,1.257-6.783,1.896c-2.018,0.574-3.718,1.205-4.93,3.062
				c-0.333,0.51-0.604,1.105-0.524,1.709C332.28,418.173,332.746,418.681,333.305,418.994z"/>
			<path style="fill:#7A483A;" d="M379.749,298.037l-0.004-0.001c0.016-0.056,0.025-0.115,0.04-0.172L379.749,298.037z"/>
			<polygon style="fill:#7A483A;" points="389.395,252.176 389.207,253.069 389.207,253.069 			"/>
			<path style="fill:#8CC9DE;" d="M375.228,251.959c0.762-1.953,1.763-3.781,3.15-5.386c0.784-0.907,1.661-1.767,2.611-2.559
				c5.102-4.251,12.765-0.001,11.766,6.564c-0.231,1.515-0.476,3.028-0.736,4.539c-1.184,6.874-1.96,13.678-5.431,19.902
				c-5.099-2.488-11.104-2.948-15.736-6.225C371.871,264.131,373.461,256.487,375.228,251.959z"/>
			<path style="fill:#D57E7C;" d="M402.626,327.655c-0.18-2.93-1.318-5.202-2.267-7.853c-1.105-3.085-1.764-6.416-2.635-9.577
				c-0.166-0.603-0.36-1.249-0.854-1.633c-0.731-0.569-1.78-0.332-2.669-0.069c-10.379,3.073-20.791,6.158-30.773,10.383
				c-9.156,3.875-17.953,7.352-24.685,14.884c-9.171,10.259-0.056,22.996,4.048,33.664c2.856,7.423,5.712,14.846,8.568,22.269
				c-0.136-0.354,15.897-1.841,16.849-2.319c1.017-0.51-2.041-15.936-2.313-17.665c-0.962-6.129-2.088-12.232-3.375-18.301
				c-0.504-2.377-0.948-5.461-1.54-8.735c1.868-0.381,3.734-0.654,5.582-0.738c8.503-0.385,17.074,0.37,25.585,0.208
				c0.136-0.003,0.271,0.015,0.408,0.012C398.603,342.064,403.113,335.559,402.626,327.655z"/>
			<path style="fill:#D57E7C;" d="M355.291,335.91c3.944-6.392,14.767-10.1,21.168-13.228c3.363-1.643,6.783-3.19,10.086-4.952
				c4.804-2.562,8.379-5.533,12.335-9.39c2.98-2.905,6.176-5.73,10.031-7.297c3.855-1.567,8.521-1.688,11.973,0.638
				c4.644,3.129,5.73,9.417,6.076,15.006c0.586,9.483-0.245,21.61-10.832,25.147c-4.725,1.578-9.449,3.157-14.174,4.736
				c-9.683,3.235-19.365,6.47-29.048,9.705c-0.099,0.042-0.19,0.091-0.295,0.129c-0.248,0.09-0.506,0.165-0.777,0.228
				c-3.937,0.912-9.157-1.029-13.45-5.225C353.198,346.337,352.317,340.73,355.291,335.91z"/>
			<path style="fill:#8CC9DE;" d="M381.754,245.757c5.036-6.203,13.812-6.684,20.868-4.118c8.892,3.233,12.932,10.295,16.086,18.786
				c1.417,3.814,1.058,7.562,2.078,11.506c1.082,4.179,2.871,8.165,3.523,12.455c0.429,2.824,0.362,5.79,1.537,8.393
				c0.726,1.608,1.906,3.017,2.37,4.719c0.357,1.309,0.263,2.69,0.278,4.047c0.025,2.298,2.459,10.728,1.012,12.298
				c-1.283,1.392-8.272,0.101-10.167,0.402c-4.531,0.759-8.978,1.767-13.553,2.303c-4.582,0.537-9.232,0.85-13.802,0.216
				c-4.57-0.634-9.09-2.27-12.599-5.266c1.077-3.881,2.309-7.773,2.568-11.814c0.281-4.377,0.009-8.688-0.519-13.034
				c-0.442-3.635-0.606-6.973-1.387-10.621c-0.944-4.41-1.796-8.844-2.326-13.325c-0.481-4.069-0.545-8.691,1.227-12.479
				C379.695,248.628,380.642,247.127,381.754,245.757z"/>
			<path style="fill:#FFFFFF;stroke:#000000;stroke-width:0.5;stroke-miterlimit:10;" d="M392.821,230.969
				c0.192-0.415,0.495-0.799,0.717-1.223c0.47-0.899,0.907-1.816,1.279-2.76c0.712-1.805,1.217-3.744,1.112-5.698
				c-0.103-1.906-1.019-3.646-2.323-5.008c-0.682-0.712-1.229-1.29-2.231-1.424c-1.113-0.149-2.244,0.075-3.352,0.16
				c-1.545,0.117-3.108-0.019-4.609-0.401c-2.539-0.647-3.694-0.283-4.43,2.174c-0.765,2.557-1.142,5.147-1.718,7.73
				c-0.6,2.69-0.867,5.544-0.062,8.223c0.305,1.015,0.815,2.013,1.604,2.738c0.856,0.787,1.838,0.633,1.97,1.975
				c0.259,2.65,0.809,5.165-0.308,7.718c2.298,2.325,5.743,3.457,8.972,2.947c3.074-0.486,5.96-2.547,7.013-5.476
				c0.049-0.137,0.095-0.288,0.049-0.427c-0.032-0.096-0.104-0.173-0.174-0.246c-0.439-0.459-1.117-0.753-1.655-1.087
				c-0.214-0.133-0.433-0.27-0.589-0.469c-0.19-0.243-0.267-0.553-0.337-0.853c-0.352-1.527-0.622-3.072-0.811-4.627
				C392.8,233.8,392.325,232.045,392.821,230.969z"/>
			<path style="fill:#110809;" d="M396.109,226.704c0.402-0.626,0.7-1.328,0.991-2.017c0.65-1.543,1.35-3.175,1.128-4.885
				c-0.199-1.526-0.984-2.908-1.997-4.043c-0.933-1.046-1.535-2.162-3.04-2.421c-0.891-0.153-1.814-0.093-2.694-0.303
				c-1.032-0.246-1.96-0.853-3.007-1.022c-1.596-0.258-3.272,0.532-4.819,0.062c-0.948-0.288-1.733-1.023-2.708-1.199
				c-1.109-0.199-2.219,0.374-3.079,1.102c-0.775,0.656-1.464,1.53-1.513,2.544c-0.029,0.611,0.18,1.214,0.493,1.739
				c0.55,0.921,1.435,1.637,2.45,1.984c1.012,0.345,2.113,0.328,3.145,0.608c0.9,0.244,1.741,0.712,2.665,0.835
				c1.306,0.174,2.629-0.36,3.935-0.185c0.374,0.05,0.749,0.163,1.049,0.393c0.592,0.455,0.777,1.283,0.697,2.025
				c-0.08,0.742-0.378,1.44-0.582,2.158c-0.111,0.39-0.194,0.811-0.072,1.198c0.122,0.387,0.513,0.717,0.911,0.637
				c0.237-0.285,1.602-1.853,1.698-0.756c0.047,0.536-0.456,1.332-0.598,1.843c-0.257,0.923-0.36,1.9,0.012,2.81
				c0.35,0.857,1.202,2.069,2.233,1.274c0.727-0.56,0.57-1.712,1.046-2.497c0.237-0.392,0.62-0.669,0.945-0.991
				C395.67,227.327,395.903,227.025,396.109,226.704z"/>
			<path style="fill:#D57E7C;" d="M355.63,336.308c-4.329,8.121-3.557,17.467-4.025,26.322c-0.171,3.235-0.785,6.444-0.653,9.685
				c0.112,2.757,0.865,5.756-0.622,8.295c-0.39,0.666-0.924,1.265-1.13,2.009c-0.674,2.431,0.894,4.641-0.092,7.28
				c-0.513,1.374-1.235,2.664-1.708,4.051c-0.561,1.648-0.757,3.394-0.95,5.124c-0.105,0.946,7.372,3.121,8.38,3.328
				c2.873,0.59,5.918,0.853,8.846,0.6c1.449-0.125,11.328-0.64,11.346-2.859c0.131-15.863,0.864-31.721,2.197-47.528
				c0.229-2.718,0.482-5.462,1.327-8.055c1.659-5.087,5.518-9.347,6.535-14.6c0.277-1.43,0.257-3.105-0.804-4.103
				c-0.974-0.916-2.473-0.932-3.802-0.792c-4.736,0.501-9.4,2.499-13.923,3.796C362.542,330.012,357.679,332.466,355.63,336.308z"/>
			<path style="fill:#FFFFFF;stroke:#000000;stroke-width:0.5;stroke-miterlimit:10;" d="M409.805,299.261
				c-0.533,1.179-1.103,2.34-1.711,3.482c-0.919,1.727-2.141,3.574-4.059,3.958c-14.431,2.921-29.783,1.912-44.394,1.433
				c-0.965-0.032-2.22-0.322-2.297-1.284c6.577-3.346,13.412-6.186,20.422-8.49c4.9-1.611,12.866-5.185,17.874-4.307
				c-0.153-8.997-0.314-18.159,2.125-26.908c0.746-2.676,1.774-5.359,3.663-7.396c1.89-2.038,4.801-3.316,7.494-2.629
				c2.472,0.631,4.327,2.787,5.257,5.163c2.129,5.436,1.329,12.998,0.674,18.676C414.126,287.27,412.422,293.47,409.805,299.261z"/>
			<path style="fill:#8CC9DE;" d="M396.213,259.719c-0.062,0.309-0.121,0.618-0.177,0.928c-0.324,1.816-3.43,11.833-2.454,12.944
				c1.665,1.895,4.282,2.578,6.736,3.165c5.683,1.36,11.367,2.72,17.05,4.079c0.343,0.082-0.226-9.067-0.24-10.043
				c-0.102-7.413,0.697-14.803-3.603-21.383c-1.474-2.256-3.677-4.028-6.196-4.986c-2.045-0.777-4.658-0.894-6.127,0.728
				c-0.586,0.646-0.906,1.484-1.208,2.302C398.504,251.49,397.057,255.534,396.213,259.719z"/>
			<g id="XMLID_581_">
				<path id="XMLID_587_" style="fill:#4764A8;" d="M331.471,308.508h52.315l0,0c0-1.01-0.819-1.828-1.828-1.828h-50.486V308.508z"
					/>
				<path id="XMLID_586_" style="fill:#4764A8;" d="M322.483,306.68h52.276l-9.323-27.61c-0.32-0.949-1.272-1.595-2.349-1.595
					h-47.123c-1.659,0-2.842,1.484-2.349,2.946L322.483,306.68z"/>
				
					<rect id="XMLID_585_" x="322.483" y="306.68" transform="matrix(-1 -1.224647e-16 1.224647e-16 -1 697.4933 615.1877)" style="fill:#4764A8;" width="52.527" height="1.829"/>
				<path id="XMLID_582_" style="fill:#110809;" d="M341.195,291.737c0.168,1.114,1.267,1.776,2.444,1.677
					c1.179-0.099,2.2-0.947,2.127-2.091c-0.075-1.167-1.164-2.16-2.435-2.148c-0.079,0.001-0.145,0.021-0.198,0.053
					c-0.06-0.017-0.129-0.021-0.205-0.001C341.76,289.519,341.029,290.641,341.195,291.737z"/>
			</g>
			<path id="XMLID_8_" style="fill:#FFFFFF;stroke:#000000;stroke-width:0.5;stroke-miterlimit:10;" d="M390.905,230.29
				c0.877,0.081,1.77-0.345,2.31-1.041c0.54-0.696,0.733-1.634,0.575-2.5c-0.222-1.215-1.165-2.481-2.542-2.025
				c-0.677,0.224-1.193,0.806-1.474,1.462"/>
			<path style="fill:none;stroke:#110809;stroke-width:0.5;stroke-miterlimit:10;" d="M381.995,319.858
				c-5.726,2.702-11.359,5.6-16.885,8.689c-2.931,1.638-5.896,3.383-8.05,5.959c-3.777,4.518-4.457,10.789-4.888,16.663
				c-0.307,4.189-1.264,8.717-0.887,12.87c0.24,2.642,0.741,5.311,0.29,7.925c-0.311,1.804-1.062,3.498-1.571,5.256
				c-0.762,2.633-0.975,5.423-0.621,8.14"/>
			<path style="fill:none;stroke:#110809;stroke-width:0.5;stroke-miterlimit:10;" d="M397.213,256.054
				c-2.367,5.836-3.32,12.24-2.755,18.512"/>
			<path style="fill:none;stroke:#110809;stroke-width:0.5;stroke-miterlimit:10;" d="M416.494,280.317
				c0.541-4.451,0.921-8.921,1.14-13.399"/>
			<path style="fill:none;stroke:#110809;stroke-width:0.5;stroke-miterlimit:10;" d="M379.549,271.994
				c-0.829-3.644-1.192-7.395-1.077-11.13"/>
			<path style="fill:#FFFFFF;stroke:#000000;stroke-width:0.5;stroke-miterlimit:10;" d="M392.561,226.059
				c-0.509-0.18-1.095,0.039-1.48,0.418c-0.385,0.379-0.606,0.892-0.786,1.402"/>
			<path style="fill:#FFFFFF;stroke:#000000;stroke-width:0.5;stroke-miterlimit:10;" d="M378.311,229.637
				c0,0.126,0.104,0.225,0.205,0.3c0.506,0.374,1.157,0.546,1.781,0.471c0.624-0.075,1.216-0.395,1.62-0.877"/>
			<path style="fill:#110809;" d="M386.316,234.98c-0.188-0.156-0.461-0.143-0.703-0.105c-1.825,0.287-3.502,1.533-5.337,1.322
				c-0.105-0.012-0.21-0.031-0.314-0.054c0.301,0.265,0.517,0.608,0.662,0.989c0.177,0.463,0.246,0.969,0.253,1.476
				c0.031,0.133,0.061,0.267,0.083,0.401l0.115,0.191c0.968-0.87,2.091-1.569,3.305-2.04c0.76-0.294,1.632-0.566,2.008-1.29
				C386.535,235.585,386.564,235.186,386.316,234.98z"/>
			<path style="fill:none;stroke:#110809;stroke-width:0.5;stroke-miterlimit:10;" d="M377.272,354.639
				c-0.686-1.176-1.372-2.352-2.058-3.528"/>
			<g>
				<g>
					<path style="fill:#A8DCA4;" d="M279.611,254.28c-0.308-0.221-0.625-0.437-0.952-0.647c-3.639-2.343-7.873-3.67-12.164-4.231
						c2.053,3.112,2.451,7.087,4.488,10.209c1.111,1.703,2.669,3.054,4.395,4.107c1.694,1.034,3.553,1.548,5.23,2.54
						c0.52,0.307,1.093,0.512,1.661,0.714c1.174,0.417,2.347,0.834,3.521,1.251c0.141,0.05,0.289,0.101,0.436,0.072
						c0.33-0.065,0.452-0.467,0.494-0.8C287.393,262.161,283.74,257.247,279.611,254.28z"/>
					<path style="fill:#A8DCA4;" d="M290.013,244.406c1.479-3.187,3.771-6.022,6.677-8.114c2.715-1.954,5.943-3.273,8.167-5.771
						c-0.046,0.051,0.82,2.524,0.871,2.827c0.195,1.172,0.205,2.375,0.038,3.551c-0.31,2.179-1.347,4.389-2.386,6.3
						c-2.363,4.346-6.47,7.752-10.036,11.07c-1.414,1.316-2.878,2.705-3.528,4.525c-0.071,0.2-0.208,0.45-0.415,0.403
						c-0.136-0.031-0.205-0.181-0.251-0.313C287.456,254.09,287.928,248.898,290.013,244.406z"/>
					<path style="fill:none;stroke:#110809;stroke-width:0.5;stroke-miterlimit:10;" d="M291.378,249.862
						c-4.014,16.38-5.604,33.352-4.704,50.193"/>
					<path style="fill:#8CC9DE;" d="M298.869,287.217c-7.711-1.036-15.676-0.472-23.238,1.332c-0.591,7.031,2.534,14.029,5.187,21
						h16.935c3.084-6.271,4.246-15.292,3.518-21.928C300.47,287.467,299.67,287.342,298.869,287.217z"/>
					<path style="fill:#A8DCA4;" d="M290.335,267.118c1.003-1.896,2.51-3.521,4.373-4.583c1.338-0.763,2.82-1.234,4.288-1.7
						c0.995-0.316,1.991-0.631,2.986-0.947c0.591-0.187,1.95-0.933,2.563-0.793c0.599,0.137,0.061,2.057-0.128,2.601
						c-0.241,0.695-0.439,1.378-0.678,2.069c-0.281,0.812-0.224,1.558-0.446,2.361c-0.49,1.771-1.726,3.334-3.134,4.476
						c-1.685,1.367-3.712,2.248-5.772,2.928c-1.351,0.446-2.726,0.812-4.092,1.208c-0.47,0.136-1.247,0.672-1.74,0.561
						c-0.788-0.179-0.042-1.439,0.136-1.957c0.233-0.676,0.259-1.403,0.345-2.113C289.211,269.796,289.659,268.395,290.335,267.118z
						"/>
					<path style="fill:none;stroke:#110809;stroke-width:0.5;stroke-miterlimit:10;" d="M287.02,277.335
						c1.407-3.115,3.851-5.082,6.514-7.225"/>
					<path style="fill:none;stroke:#110809;stroke-width:0.5;stroke-miterlimit:10;" d="M287.33,273.078
						c-0.124-1.584-0.53-3.048-1.026-4.553c-0.441-1.341-0.802-2.574-1.555-3.785c-2.169-3.485-5.881-5.655-9.447-7.688"/>
				</g>
				<path style="fill:none;stroke:#110809;stroke-width:0.5;stroke-miterlimit:10;" d="M278.297,291.082
					c0.243,3.538,0.91,7.046,1.981,10.426"/>
				<path style="fill:none;stroke:#110809;stroke-width:0.5;stroke-miterlimit:10;" d="M280.993,303.278
					c0.392,1.029,0.784,2.058,1.176,3.087"/>
			</g>
			<g>
				
					<line style="fill:none;stroke:#EDBF34;stroke-width:2;stroke-miterlimit:10;" x1="291.635" y1="310.395" x2="280.17" y2="420.197"/>
				
					<line style="fill:none;stroke:#EDBF34;stroke-width:2;stroke-miterlimit:10;" x1="427.616" y1="310.395" x2="439.081" y2="420.197"/>
			</g>
			<rect x="271.733" y="308.662" style="fill:#EDBF34;" width="175.286" height="2.37"/>
			<path style="fill:none;stroke:#110809;stroke-width:0.5;stroke-miterlimit:10;" d="M402.615,305.465
				c1.883-0.477,3.509-1.874,4.266-3.662"/>
			<path style="fill:none;stroke:#110809;stroke-width:0.5;stroke-miterlimit:10;" d="M407.427,299.565
				c0.194-0.838,0.387-1.675,0.581-2.513"/>
		</g>
		<path style="fill:none;stroke:#110809;stroke-width:0.5;stroke-miterlimit:10;" d="M293.483,107.92
			c-9.988-2.412-20.249-3.696-30.524-3.818"/>
		<path style="fill:none;stroke:#110809;stroke-width:0.5;stroke-miterlimit:10;" d="M144.174,117.96
			c-5.839,5.824-10.851,12.477-14.759,19.742"/>
		<path style="fill:none;stroke:#110809;stroke-width:0.5;stroke-miterlimit:10;" d="M381.822,180.18
			c2.591,6.803,4.45,13.884,5.535,21.083"/>
		<g>
			<g>
				<path style="fill:#EDBF34;" d="M250.431,228.142c0.304-1.63,1.872-2.705,3.501-2.401c0.143,0.027,0.276,0.075,0.41,0.12
					c0.036-1.215-0.049-2.412-0.248-3.579c-0.125,0.065-0.249,0.133-0.386,0.182c-1.564,0.552-3.278-0.268-3.83-1.832
					c-0.552-1.564,0.268-3.278,1.832-3.83c0.149-0.053,0.299-0.081,0.45-0.11c-0.574-1.061-1.25-2.065-2.022-2.992
					c-0.08,0.128-0.16,0.257-0.261,0.376c-1.078,1.26-2.973,1.407-4.233,0.329c-1.26-1.078-1.407-2.973-0.329-4.233
					c0.109-0.127,0.232-0.235,0.356-0.34c-1.02-0.627-2.113-1.158-3.267-1.578c-0.004,0.157-0.01,0.314-0.04,0.474
					c-0.304,1.63-1.872,2.705-3.502,2.401c-1.63-0.304-2.705-1.871-2.401-3.501c0.031-0.166,0.083-0.323,0.139-0.477
					c-1.229-0.031-2.44,0.063-3.619,0.272c0.075,0.138,0.148,0.277,0.202,0.429c0.552,1.564-0.268,3.278-1.832,3.83
					c-1.563,0.552-3.278-0.268-3.83-1.832c-0.054-0.153-0.084-0.309-0.113-0.464c-1.058,0.581-2.056,1.265-2.98,2.042
					c0.125,0.078,0.251,0.156,0.366,0.255c1.26,1.078,1.407,2.973,0.329,4.233c-1.078,1.26-2.973,1.407-4.233,0.329
					c-0.115-0.098-0.21-0.21-0.306-0.321c-0.613,1.013-1.131,2.095-1.542,3.238c0.134,0.007,0.268,0.009,0.404,0.034
					c1.63,0.304,2.705,1.871,2.401,3.501c-0.304,1.63-1.872,2.705-3.501,2.401c-0.133-0.025-0.256-0.071-0.381-0.111
					c-0.025,1.203,0.07,2.389,0.276,3.544c0.108-0.054,0.212-0.114,0.329-0.155c1.564-0.552,3.278,0.268,3.83,1.832
					c0.552,1.563-0.268,3.278-1.832,3.83c-0.115,0.041-0.231,0.059-0.347,0.084c0.569,1.032,1.237,2.007,1.994,2.91
					c0.061-0.09,0.114-0.184,0.187-0.268c1.078-1.26,2.973-1.407,4.233-0.329c1.26,1.078,1.407,2.973,0.329,4.233
					c-0.074,0.086-0.16,0.154-0.241,0.23c0.992,0.601,2.05,1.111,3.166,1.519c0.008-0.102,0.007-0.202,0.026-0.305
					c0.304-1.63,1.871-2.705,3.501-2.401c1.63,0.304,2.705,1.871,2.401,3.501c-0.021,0.11-0.06,0.21-0.092,0.314
					c1.189,0.029,2.361-0.057,3.504-0.253c-0.045-0.095-0.099-0.184-0.134-0.286c-0.552-1.563,0.268-3.278,1.832-3.83
					c1.564-0.552,3.279,0.268,3.83,1.832c0.039,0.11,0.056,0.222,0.081,0.334c1.035-0.563,2.014-1.224,2.921-1.975
					c-0.092-0.063-0.189-0.117-0.276-0.192c-1.26-1.078-1.407-2.973-0.329-4.233c1.078-1.26,2.973-1.407,4.233-0.329
					c0.099,0.085,0.178,0.182,0.263,0.276c0.615-0.999,1.138-2.067,1.555-3.195c-0.125-0.007-0.248-0.008-0.374-0.032
					C251.202,231.339,250.127,229.772,250.431,228.142z M244.685,229.137c-2.095,4.705-7.627,6.827-12.332,4.732
					c-4.705-2.095-6.827-7.627-4.732-12.332c2.095-4.705,7.627-6.828,12.332-4.733C244.658,218.9,246.781,224.433,244.685,229.137z"
					/>
				<path style="fill:none;stroke:#222221;stroke-width:0.5;stroke-miterlimit:10;" d="M242.701,225.338
					c0,3.614-2.93,6.545-6.545,6.545c-3.615,0-6.545-2.93-6.545-6.545c0-3.615,2.93-6.545,6.545-6.545
					C239.77,218.793,242.701,221.723,242.701,225.338z"/>
				<path style="fill:none;stroke:#222221;stroke-width:0.5;stroke-miterlimit:10;" d="M248.043,225.338
					c0,6.565-5.322,11.887-11.887,11.887c-6.565,0-11.887-5.322-11.887-11.887c0-6.565,5.322-11.887,11.887-11.887
					C242.721,213.451,248.043,218.773,248.043,225.338z"/>
			</g>
			<g>
				<path style="fill:#EDBF34;" d="M277.693,203.564c0.304-1.63,1.871-2.705,3.501-2.401c0.143,0.027,0.276,0.075,0.41,0.12
					c0.036-1.215-0.049-2.412-0.248-3.579c-0.125,0.065-0.249,0.133-0.386,0.181c-1.564,0.552-3.278-0.268-3.83-1.832
					c-0.552-1.564,0.268-3.278,1.832-3.83c0.149-0.053,0.299-0.081,0.45-0.11c-0.574-1.061-1.25-2.065-2.022-2.992
					c-0.08,0.128-0.16,0.257-0.261,0.376c-1.078,1.26-2.973,1.407-4.233,0.329c-1.26-1.078-1.407-2.973-0.329-4.233
					c0.109-0.127,0.231-0.235,0.356-0.34c-1.02-0.627-2.113-1.158-3.267-1.578c-0.004,0.157-0.01,0.314-0.04,0.474
					c-0.304,1.63-1.872,2.705-3.502,2.401c-1.63-0.304-2.705-1.871-2.401-3.501c0.031-0.166,0.083-0.323,0.139-0.477
					c-1.229-0.031-2.44,0.063-3.619,0.272c0.075,0.138,0.148,0.277,0.202,0.429c0.552,1.564-0.268,3.278-1.832,3.83
					c-1.563,0.552-3.278-0.268-3.83-1.832c-0.054-0.153-0.084-0.309-0.113-0.464c-1.058,0.581-2.056,1.265-2.98,2.042
					c0.125,0.078,0.251,0.156,0.366,0.255c1.26,1.078,1.407,2.973,0.329,4.233c-1.078,1.26-2.973,1.407-4.233,0.329
					c-0.115-0.098-0.21-0.21-0.307-0.321c-0.613,1.013-1.131,2.095-1.542,3.238c0.134,0.007,0.268,0.009,0.404,0.034
					c1.63,0.304,2.705,1.871,2.401,3.501c-0.304,1.63-1.872,2.705-3.501,2.401c-0.133-0.025-0.256-0.071-0.381-0.111
					c-0.025,1.203,0.07,2.389,0.276,3.544c0.108-0.054,0.212-0.113,0.329-0.155c1.564-0.552,3.278,0.268,3.83,1.832
					c0.552,1.563-0.268,3.278-1.832,3.83c-0.115,0.041-0.231,0.059-0.347,0.084c0.569,1.032,1.238,2.007,1.994,2.91
					c0.061-0.09,0.114-0.184,0.186-0.268c1.078-1.26,2.973-1.407,4.233-0.329c1.26,1.078,1.407,2.973,0.329,4.233
					c-0.074,0.086-0.16,0.154-0.241,0.23c0.992,0.601,2.05,1.111,3.166,1.519c0.009-0.102,0.007-0.202,0.026-0.305
					c0.304-1.63,1.871-2.705,3.501-2.401c1.63,0.304,2.705,1.871,2.401,3.501c-0.021,0.11-0.06,0.21-0.092,0.314
					c1.189,0.03,2.361-0.057,3.504-0.253c-0.045-0.095-0.098-0.184-0.134-0.286c-0.552-1.563,0.268-3.278,1.832-3.83
					c1.564-0.552,3.278,0.268,3.83,1.832c0.039,0.11,0.056,0.222,0.081,0.333c1.035-0.563,2.014-1.224,2.921-1.975
					c-0.092-0.063-0.189-0.117-0.276-0.192c-1.26-1.078-1.407-2.973-0.329-4.233c1.078-1.26,2.973-1.407,4.233-0.329
					c0.099,0.085,0.178,0.182,0.263,0.276c0.615-0.999,1.137-2.067,1.555-3.195c-0.125-0.007-0.249-0.008-0.374-0.031
					C278.464,206.762,277.389,205.194,277.693,203.564z M271.947,204.56c-2.095,4.705-7.627,6.827-12.332,4.732
					c-4.705-2.095-6.827-7.627-4.732-12.332c2.095-4.705,7.627-6.828,12.332-4.733C271.92,194.323,274.042,199.855,271.947,204.56z"
					/>
				<path style="fill:none;stroke:#222221;stroke-width:0.5;stroke-miterlimit:10;" d="M269.962,200.76
					c0,3.615-2.93,6.545-6.545,6.545c-3.615,0-6.545-2.93-6.545-6.545c0-3.615,2.93-6.545,6.545-6.545
					C267.032,194.215,269.962,197.145,269.962,200.76z"/>
				
					<ellipse transform="matrix(0.7071 -0.7071 0.7071 0.7071 -64.8055 245.0657)" style="fill:none;stroke:#222221;stroke-width:0.5;stroke-miterlimit:10;" cx="263.418" cy="200.76" rx="11.887" ry="11.887"/>
			</g>
		</g>
		<g>
			<path style="fill:#EDBF34;" d="M74.442,155.461c2.829-3.085,7.373-4.718,11.613-5.666c13.485-3.016,27.439-2.494,41.082-0.976
				c4.813,0.536,11.561,0.015,14.937,3.917c3.286,3.798,3.909,9.18,3.607,13.977c-0.131,2.073-0.803,4.176-2.234,5.681
				c-2.329,2.449-6.039,2.818-9.419,2.986c0.652,6.558,0.228,10.76,4.228,16.002c-5.714-1.882-7.002-4.902-9.082-10.546
				c-0.624-1.692-1.089-3.427-1.446-5.188c-0.104-0.512-26.456,0.484-28.948,0.494c-8.095,0.032-15.757,0.295-23.515-2.322
				c-4.42-1.491-4.213-11.725-2.872-15.118C72.879,157.474,73.581,156.4,74.442,155.461z"/>
			<path style="fill:none;stroke:#222221;stroke-width:0.5;stroke-miterlimit:10;" d="M82.45,166.296
				c0.832-1.408,1.692-2.849,2.966-3.875c1.274-1.026,3.072-1.565,4.579-0.928c2.14,0.905,3.017,3.788,5.244,4.449
				c3.753,1.113,6.843-4.982,10.594-3.862c2.201,0.658,3.235,3.577,5.498,3.973c3.183,0.557,5.338-4.271,8.544-3.869
				c1.878,0.236,2.999,2.152,4.531,3.264c3.148,2.285,8.382,0.215,9.116-3.605"/>
		</g>
		<g>
			<g>
				<path style="fill:#EBAEAE;" d="M432.983,212.384c0,5.419-9.813,19.758-9.813,19.758s-9.813-14.339-9.813-19.758
					c0-5.419,4.393-9.813,9.813-9.813S432.983,206.964,432.983,212.384z"/>
				<path style="fill:#110809;" d="M427.139,211.7c0,2.192-1.777,3.969-3.969,3.969c-2.192,0-3.969-1.777-3.969-3.969
					c0-2.192,1.777-3.969,3.969-3.969C425.362,207.731,427.139,209.508,427.139,211.7z"/>
			</g>
			
				<line style="fill:none;stroke:#110809;stroke-width:0.5;stroke-miterlimit:10;" x1="417.839" y1="231.94" x2="426.817" y2="231.94"/>
		</g>
		<g>
			<g>
				<path style="fill:#EBAEAE;" d="M289.95,143.836c0,5.457-9.881,19.896-9.881,19.896s-9.881-14.439-9.881-19.896
					c0-5.457,4.424-9.881,9.881-9.881S289.95,138.379,289.95,143.836z"/>
				<path style="fill:#110809;" d="M284.066,143.148c0,2.207-1.789,3.997-3.997,3.997s-3.997-1.79-3.997-3.997
					s1.789-3.997,3.997-3.997S284.066,140.941,284.066,143.148z"/>
			</g>
			
				<line style="fill:none;stroke:#110809;stroke-width:0.5;stroke-miterlimit:10;" x1="274.357" y1="163.912" x2="284.371" y2="163.912"/>
			
				<line style="fill:none;stroke:#110809;stroke-width:0.5;stroke-miterlimit:10;" x1="269.976" y1="163.912" x2="272.458" y2="163.912"/>
		</g>
		<g>
			<g>
				<path style="fill:#EBAEAE;" d="M80.234,207.141c0,5.419-9.813,19.758-9.813,19.758s-9.813-14.339-9.813-19.758
					s4.393-9.813,9.813-9.813S80.234,201.722,80.234,207.141z"/>
				<path style="fill:#110809;" d="M74.391,206.458c0,2.192-1.777,3.969-3.969,3.969c-2.192,0-3.969-1.777-3.969-3.969
					c0-2.192,1.777-3.969,3.969-3.969C72.614,202.488,74.391,204.266,74.391,206.458z"/>
			</g>
			
				<line style="fill:none;stroke:#110809;stroke-width:0.5;stroke-miterlimit:10;" x1="63.365" y1="226.933" x2="75.624" y2="226.933"/>
			
				<line style="fill:none;stroke:#110809;stroke-width:0.5;stroke-miterlimit:10;" x1="64.573" y1="229.178" x2="68.199" y2="229.178"/>
		</g>
	</g>
	<g>
		<path style="fill:none;stroke:#110809;stroke-width:2;stroke-miterlimit:10;" d="M251.839,353.397
			c7.002-4.786,14.245-9.679,22.623-11.531c8.379-1.853,18.274,0.074,23.268,6.788c5.692,7.652,3.247,18.226-0.096,27.062
			c-0.151,0.399-0.379,0.86-0.817,0.92c-0.438,0.06-0.701-0.723-0.259-0.748"/>
		<g>
			<rect id="XMLID_16_" x="247.818" y="363.222" style="fill:#110809;" width="4.077" height="56.797"/>
			<path id="XMLID_15_" style="fill:none;stroke:#110809;stroke-miterlimit:10;" d="M227.911,431.637
				c0-8.175,14.465-11.604,21.693-11.618c8.604-0.017,21.694,3.155,21.694,11.618"/>
			
				<line id="XMLID_14_" style="fill:none;stroke:#110809;stroke-miterlimit:10;" x1="249.848" y1="433.822" x2="249.848" y2="420.243"/>
			<path id="XMLID_13_" style="fill:#110809;" d="M274.848,433.609c0,1.961-1.589,3.55-3.55,3.55c-1.96,0-3.55-1.589-3.55-3.55
				c0-1.961,1.589-3.55,3.55-3.55C273.259,430.059,274.848,431.648,274.848,433.609z"/>
			<path id="XMLID_12_" style="fill:#110809;" d="M253.334,433.609c0,1.961-1.589,3.55-3.55,3.55c-1.96,0-3.55-1.589-3.55-3.55
				c0-1.961,1.589-3.55,3.55-3.55C251.745,430.059,253.334,431.648,253.334,433.609z"/>
			<path id="XMLID_11_" style="fill:#110809;" d="M231.82,433.609c0,1.961-1.589,3.55-3.55,3.55c-1.96,0-3.55-1.589-3.55-3.55
				c0-1.961,1.589-3.55,3.55-3.55C230.23,430.059,231.82,431.648,231.82,433.609z"/>
		</g>
		<path style="fill:#110809;" d="M232.892,379.454c5.355,0.834,11.515,0.075,16.615,0.075c13.969,0,27.938,0,41.907,0
			c0.562,0,1.124,0,1.686,0c3.231-0.124,6.462-0.264,9.695-0.447c0.052-0.003,0.105-0.006,0.159-0.01
			c1.184-0.076,2.501-0.278,3.136-1.263c0.742-1.151,0.039-2.784-1.115-3.519c-1.155-0.736-2.594-0.815-3.962-0.872
			c-6.542-0.274-18.006,0.05-22.193-6.196c-5.367-7.952-3.06-17.255-3.9-26.093c-0.912-9.599-3.4-19.662-9.794-27.149
			c-10.678-12.505-28.194-13.402-40.712-2.89c-6.26,5.257-9.525,13.401-10.51,21.515c-0.985,8.114,0.074,16.322,1.132,24.428
			c1.117,8.563,5.229,18.272,14.088,21.485C230.313,378.949,231.578,379.25,232.892,379.454z"/>
	</g>
</g>
</svg>
